PathFileType	4	(X/Y/Z)	/Users/niels/Desktop/University/Third Semester/Perception and Action/Exam/Gymnastics Motion Tracking/Code for Gym Tracking/Analyzed Data/Webcam_Backflip/id2_2_pure_Sports2D/id2_2_pure_Sports2D_px_person00.trc
DataRate	CameraRate	NumFrames	NumMarkers	Units	OrigDataRate	OrigDataStartFrame	OrigNumFrames
29.87551867219917	29.87551867219917	9	22	m	29.87551867219917	90	241
Frame#	Time	Hip			RHip			RKnee			RAnkle			RBigToe			RSmallToe			RHeel			LHip			LKnee			LAnkle			LBigToe			LSmallToe			LHeel			Neck			Head			Nose			RShoulder			RElbow			RWrist			LShoulder			LElbow			LWrist		
		X1	Y1	Z1	X2	Y2	Z2	X3	Y3	Z3	X4	Y4	Z4	X5	Y5	Z5	X6	Y6	Z6	X7	Y7	Z7	X8	Y8	Z8	X9	Y9	Z9	X10	Y10	Z10	X11	Y11	Z11	X12	Y12	Z12	X13	Y13	Z13	X14	Y14	Z14	X15	Y15	Z15	X16	Y16	Z16	X17	Y17	Z17	X18	Y18	Z18	X19	Y19	Z19	X20	Y20	Z20	X21	Y21	Z21	X22	Y22	Z22
90	3.0125	0.927010663686137	-0.5112944818745573	0.0	0.9248365069455372	-0.5065588048173327	0.0	0.9603684327013511	-0.6215815771954711	0.0	0.9446078579701515	-0.7453057940813794	0.0	0.9885133494119455	-0.7719632952414051	0.0	0.9780200960470625	-0.7760343016255279	0.0	0.9305502754080236	-0.7613608023431206	0.0	0.9308115522474304	-0.5071186211454682	0.0	0.9603971323304084	-0.6227150237501912	0.0	0.9484354075243356	-0.7370663187519635	0.0	0.9894749610423966	-0.7610984961198551	0.0	0.9857347009290951	-0.7586912805928512	0.0	0.9311352833048578	-0.7520381400244617	0.0	1.0065387391834284	-0.3874968691232393	0.0	1.0781252296991182	-0.35027913706811525	0.0	1.0656813800957388	-0.37960097233413365	0.0	1.007043058269346	-0.3836495371708292	0.0	0.9371637081527513	-0.33889702927782256	0.0	0.8655857265495694	-0.3438366590742721	0.0	0.9934004712627529	-0.3827823507128972	0.0	0.9321628056814149	-0.36715159303495526	0.0	0.8744437645750214	-0.37514512192028404	0.0
91	3.0459722222222223	0.9217239716501698	-0.5107291441718477	0.0	0.9197347634454196	-0.5067342021577658	0.0	0.9629671485299507	-0.6181117151069137	0.0	0.9456510555586056	-0.7420652722064639	0.0	0.9887139983930981	-0.770231897020508	0.0	0.9779202943034729	-0.7740184400418683	0.0	0.9311908198375144	-0.7577713291074253	0.0	0.927431226311897	-0.5073258800323907	0.0	0.9631589273237351	-0.6189822510189393	0.0	0.9492795862811185	-0.7335884497445543	0.0	0.9892396152735081	-0.7589968188806199	0.0	0.9853814258762356	-0.7568647502269844	0.0	0.931395556501303	-0.749022816818389	0.0	1.0082976856719106	-0.39325235720166685	0.0	1.0803436329798255	-0.35839206992610406	0.0	1.0670756154804037	-0.38687570773825286	0.0	1.0076668419876391	-0.38852840292347046	0.0	0.9389060142591927	-0.3413288111548021	0.0	0.8660615610509386	-0.34802328465377746	0.0	0.9961027693006622	-0.3885211664912658	0.0	0.9339611664713064	-0.3700842314082101	0.0	0.8755990912418445	-0.3770242894852341	0.0
92	3.0794444444444444	0.9161607968146287	-0.513531352242666	0.0	0.9147234858529197	-0.5103916605371064	0.0	0.966461261075858	-0.6168536001636248	0.0	0.9462076002682195	-0.7405726874056787	0.0	0.9889908438804135	-0.7693796473461753	0.0	0.9779364212827479	-0.7729989762006064	0.0	0.931497346037782	-0.7557939647188924	0.0	0.9236505877482702	-0.5109187813417851	0.0	0.9667275112389788	-0.6173612659776868	0.0	0.9498127267763127	-0.7319633049392366	0.0	0.9890270765901453	-0.7584303911753527	0.0	0.9855504983273412	-0.7562586980676101	0.0	0.9313499135028223	-0.7475861233993594	0.0	1.0099768280873076	-0.4026847446715109	0.0	1.082273321423108	-0.36925631238677986	0.0	1.0684367449468557	-0.3971414977987829	0.0	1.0079002863434843	-0.39801777060139154	0.0	0.9388357396192911	-0.35141742766858397	0.0	0.8646286961261075	-0.3606989647862337	0.0	0.9986220981317133	-0.39848084335425016	0.0	0.9342539827871743	-0.37890699747012596	0.0	0.8742497258565871	-0.3855267810933772	0.0
93	3.1129166666666666	0.9106931084815791	-0.5197407489787224	0.0	0.9100203218662923	-0.5175115762373961	0.0	0.9706591514687973	-0.6181478043129718	0.0	0.9461319907280061	-0.7409896042428397	0.0	0.9893791876683038	-0.7692772112811628	0.0	0.9781621651887883	-0.7728542906323872	0.0	0.9313867398346556	-0.7556892895376306	0.0	0.9196164976210742	-0.5178622445464061	0.0	0.9708668802632123	-0.6181430759329485	0.0	0.9498554719938792	-0.732398631677162	0.0	0.9887698198237174	-0.7592962866228644	0.0	0.9861116517640027	-0.7566492967211859	0.0	0.9310241608482743	-0.7478382631395986	0.0	1.011591509101387	-0.4156110541083305	0.0	1.0836418073980727	-0.38243124752119034	0.0	1.0696831708202492	-0.40997746232389354	0.0	1.0078379388024432	-0.4120731611927274	0.0	0.9368129316364544	-0.36949454694724926	0.0	0.8616357823596291	-0.3825012143576728	0.0	1.0010048057513792	-0.4125549130340266	0.0	0.9332000631569082	-0.3942346515626845	0.0	0.871028871950699	-0.40177918996082607	0.0
94	3.146388888888889	0.9058422708985163	-0.5294520501558759	0.0	0.9059521379528924	-0.528087529484624	0.0	0.9751311105184609	-0.622627628572333	0.0	0.9453911979476379	-0.7438258533158011	0.0	0.9896358990977538	-0.7704083083695953	0.0	0.9783907987835303	-0.7740117534456413	0.0	0.9308506009169589	-0.7580322074374733	0.0	0.9156714365350782	-0.5281475492476623	0.0	0.9751639850954896	-0.6219962925830703	0.0	0.9492795411603123	-0.7353992350059697	0.0	0.9883716738922526	-0.7619231075309671	0.0	0.9866983160531961	-0.758381151191122	0.0	0.93052146544458	-0.7502529292190125	0.0	1.0131433416839415	-0.4315853629628678	0.0	1.0839317325502522	-0.3973316923779289	0.0	1.0705802297032547	-0.4248695082001277	0.0	1.007330685094109	-0.4301884373030565	0.0	0.9330902666598789	-0.39552625049341594	0.0	0.8582693273091945	-0.4137305795422229	0.0	1.003069192575664	-0.4302671092595777	0.0	0.9312335445257549	-0.4162046223743855	0.0	0.867339448449288	-0.4265826938223634	0.0
95	3.1798611111111112	0.902208942980137	-0.5428330851359159	0.0	0.9029589767378841	-0.5421734623776722	0.0	0.979324484375239	-0.6311579242190687	0.0	0.9441353833378606	-0.749898753787534	0.0	0.9894256493030762	-0.7739052634086434	0.0	0.9782767046652483	-0.7775057466835789	0.0	0.9300049642132838	-0.7637034198298145	0.0	0.9123758656279892	-0.5418387444650037	0.0	0.9791206371612197	-0.629885438801719	0.0	0.9480699700147777	-0.7418266541923302	0.0	0.9877980495794182	-0.7672479055778668	0.0	0.9869247579795457	-0.7625676884746969	0.0	0.9299634199320184	-0.7557364903338245	0.0	1.0143852647093852	-0.44977350878001066	0.0	1.0824733003706002	-0.4131615669112291	0.0	1.0707027650954808	-0.44112028042509355	0.0	1.005989949177579	-0.4514021340649053	0.0	0.928511288273711	-0.4288865891572399	0.0	0.8567573013946481	-0.45389367076220244	0.0	1.0043012191953562	-0.45061089940454524	0.0	0.9291310484300339	-0.4443398046243291	0.0	0.8654795611475805	-0.4599151048391263	0.0
96	3.2133333333333334	0.9003852375763152	-0.5599536809480518	0.0	0.9015160518102129	-0.5597959933058894	0.0	0.9827579771003522	-0.6445223913099927	0.0	0.9427164871261964	-0.7600950587630012	0.0	0.9885708871099825	-0.7812704654712601	0.0	0.9775709261588462	-0.7847121522845474	0.0	0.9290728471871297	-0.7736606628639405	0.0	0.9104300300350575	-0.558987194677253	0.0	0.9823257092190826	-0.642702055066286	0.0	0.9464350660997782	-0.7526577102438244	0.0	0.98712629833074	-0.7765607371104299	0.0	0.986608184998824	-0.7708151408612496	0.0	0.9294111719345892	-0.7654132232414907	0.0	1.0146723018538766	-0.4689374606929551	0.0	1.078618869264783	-0.4288441174099343	0.0	1.06943241913961	-0.4577221872306455	0.0	1.0033090566250198	-0.4743473987525337	0.0	0.924619690575233	-0.4680215035969287	0.0	0.8602611933074163	-0.5012548636620268	0.0	1.0040294224618018	-0.4721890695535341	0.0	0.9280594950026885	-0.4774920008768884	0.0	0.8684474413327308	-0.5004027723627613	0.0
97	3.2468055555555555	0.9007657024884125	-0.5804906544379572	0.0	0.9019430510774512	-0.5806615341852478	0.0	0.9851364865543615	-0.6629772759111717	0.0	0.9415596694389624	-0.7749628302253067	0.0	0.9872000806657674	-0.7936677531477432	0.0	0.9762596150951913	-0.7966948800395874	0.0	0.9282768951290908	-0.7884022646184085	0.0	0.9103785527625683	-0.5793701154261656	0.0	0.9845695158108972	-0.6607741102743396	0.0	0.9447878176263272	-0.7684742313535451	0.0	0.9865439119474583	-0.7907299735699864	0.0	0.9858435859147658	-0.784409823599909	0.0	0.9288099950798443	-0.7800841893455546	0.0	1.0131029294441587	-0.48763251504627575	0.0	1.0718857878995944	-0.4431123175021759	0.0	1.066051636577495	-0.47337869790753967	0.0	0.9988670317398083	-0.49736246719717736	0.0	0.9235008102159168	-0.5101173209852315	0.0	0.8722380392905179	-0.5521793991585567	0.0	1.0017656678893254	-0.4935516263302377	0.0	0.9295192999418433	-0.5135396714052786	0.0	0.8793307213157275	-0.5448156006667136	0.0
98	3.2802777777777776	0.9031970139014966	-0.6033442039819912	0.0	0.9040717985111206	-0.6037368512217043	0.0	0.9863700868473648	-0.6858034273758744	0.0	0.9409446739284744	-0.7941920497150329	0.0	0.985721186316923	-0.8110399670693332	0.0	0.9745738598633247	-0.8134173163768335	0.0	0.9277043088025412	-0.8074224408167577	0.0	0.9121641011414061	-0.6020683030667544	0.0	0.9858052083522245	-0.6833867412650502	0.0	0.9435335781822585	-0.7888979319713036	0.0	0.9862848834462832	-0.8093929633025241	0.0	0.9848469722707653	-0.8033536407785224	0.0	0.9280277728603791	-0.7995780107421467	0.0	1.0089302381104646	-0.5044858729024336	0.0	1.0619456278015793	-0.454756931888438	0.0	1.0599190069852367	-0.4867730277648895	0.0	0.9925892801198	-0.5187024848224494	0.0	0.92728919622095	-0.5510272691730016	0.0	0.8952759488143993	-0.6004379308819165	0.0	0.9974455716506714	-0.5133600583250741	0.0	0.9351190576569205	-0.5489998477919947	0.0	0.9004800238536732	-0.5876780145185269	0.0
